<mxfile host="Electron" modified="2023-04-14T08:35:51.282Z" agent="Mozilla/5.0 (Windows NT 10.0; Win64; x64) AppleWebKit/537.36 (KHTML, like Gecko) draw.io/21.1.2 Chrome/106.0.5249.199 Electron/21.4.3 Safari/537.36" etag="3N2ma99Hr4DlT1dpYpxX" version="21.1.2" type="device">
  <diagram name="Page-1" id="5s-hA76kQ4tuXMuySI7n">
    <mxGraphModel dx="522" dy="516" grid="1" gridSize="10" guides="1" tooltips="1" connect="1" arrows="1" fold="1" page="1" pageScale="1" pageWidth="1200" pageHeight="1600" math="0" shadow="0">
      <root>
        <mxCell id="0" />
        <mxCell id="1" parent="0" />
        <mxCell id="pxR8fgpR1iwGd776vOP8-1" value="begin check if fibbonacci" style="ellipse;whiteSpace=wrap;html=1;" parent="1" vertex="1">
          <mxGeometry x="220" width="120" height="30" as="geometry" />
        </mxCell>
        <mxCell id="pxR8fgpR1iwGd776vOP8-2" value="x n=0" style="shape=parallelogram;perimeter=parallelogramPerimeter;whiteSpace=wrap;html=1;fixedSize=1;" parent="1" vertex="1">
          <mxGeometry x="220" y="40" width="120" height="20" as="geometry" />
        </mxCell>
        <mxCell id="pxR8fgpR1iwGd776vOP8-3" value="" style="endArrow=classic;html=1;rounded=0;exitX=0.5;exitY=1;exitDx=0;exitDy=0;entryX=0.5;entryY=0;entryDx=0;entryDy=0;" parent="1" source="pxR8fgpR1iwGd776vOP8-1" target="pxR8fgpR1iwGd776vOP8-2" edge="1">
          <mxGeometry width="50" height="50" relative="1" as="geometry">
            <mxPoint x="60" y="220" as="sourcePoint" />
            <mxPoint x="110" y="170" as="targetPoint" />
          </mxGeometry>
        </mxCell>
        <mxCell id="pxR8fgpR1iwGd776vOP8-4" value="" style="endArrow=classic;html=1;rounded=0;exitX=0.5;exitY=1;exitDx=0;exitDy=0;entryX=0.5;entryY=0;entryDx=0;entryDy=0;" parent="1" source="pxR8fgpR1iwGd776vOP8-2" target="pxR8fgpR1iwGd776vOP8-5" edge="1">
          <mxGeometry width="50" height="50" relative="1" as="geometry">
            <mxPoint x="150" y="210" as="sourcePoint" />
            <mxPoint x="170" y="70" as="targetPoint" />
          </mxGeometry>
        </mxCell>
        <mxCell id="pxR8fgpR1iwGd776vOP8-5" value="while n=&amp;gt;0" style="rhombus;whiteSpace=wrap;html=1;" parent="1" vertex="1">
          <mxGeometry x="240" y="70" width="80" height="30" as="geometry" />
        </mxCell>
        <mxCell id="pxR8fgpR1iwGd776vOP8-6" value="" style="endArrow=classic;html=1;rounded=0;exitX=0.5;exitY=1;exitDx=0;exitDy=0;entryX=0.5;entryY=0;entryDx=0;entryDy=0;" parent="1" source="pxR8fgpR1iwGd776vOP8-5" target="pxR8fgpR1iwGd776vOP8-8" edge="1">
          <mxGeometry width="50" height="50" relative="1" as="geometry">
            <mxPoint x="170" y="200" as="sourcePoint" />
            <mxPoint x="190" y="100" as="targetPoint" />
          </mxGeometry>
        </mxCell>
        <mxCell id="pxR8fgpR1iwGd776vOP8-8" value="fib=-fibbonaci n" style="shape=process;whiteSpace=wrap;html=1;backgroundOutline=1;" parent="1" vertex="1">
          <mxGeometry x="220" y="110" width="120" height="20" as="geometry" />
        </mxCell>
        <mxCell id="pxR8fgpR1iwGd776vOP8-9" value="" style="endArrow=classic;html=1;rounded=0;exitX=0.5;exitY=1;exitDx=0;exitDy=0;entryX=0.5;entryY=0;entryDx=0;entryDy=0;" parent="1" source="pxR8fgpR1iwGd776vOP8-8" target="pxR8fgpR1iwGd776vOP8-10" edge="1">
          <mxGeometry width="50" height="50" relative="1" as="geometry">
            <mxPoint x="230" y="150" as="sourcePoint" />
            <mxPoint x="120" y="160" as="targetPoint" />
          </mxGeometry>
        </mxCell>
        <mxCell id="pxR8fgpR1iwGd776vOP8-10" value="if fib=&amp;gt;x" style="rhombus;whiteSpace=wrap;html=1;" parent="1" vertex="1">
          <mxGeometry x="240" y="140" width="80" height="30" as="geometry" />
        </mxCell>
        <mxCell id="pxR8fgpR1iwGd776vOP8-12" value="" style="endArrow=classic;html=1;rounded=0;exitX=1;exitY=0.5;exitDx=0;exitDy=0;entryX=0.5;entryY=0;entryDx=0;entryDy=0;" parent="1" source="pxR8fgpR1iwGd776vOP8-10" target="pxR8fgpR1iwGd776vOP8-13" edge="1">
          <mxGeometry width="50" height="50" relative="1" as="geometry">
            <mxPoint x="410" y="160" as="sourcePoint" />
            <mxPoint x="460" y="110" as="targetPoint" />
            <Array as="points">
              <mxPoint x="350" y="155" />
            </Array>
          </mxGeometry>
        </mxCell>
        <mxCell id="pxR8fgpR1iwGd776vOP8-13" value="break" style="rounded=0;whiteSpace=wrap;html=1;" parent="1" vertex="1">
          <mxGeometry x="330" y="170" width="40" height="20" as="geometry" />
        </mxCell>
        <mxCell id="pxR8fgpR1iwGd776vOP8-14" value="" style="endArrow=none;html=1;rounded=0;entryX=0;entryY=0.5;entryDx=0;entryDy=0;exitX=0.5;exitY=1;exitDx=0;exitDy=0;" parent="1" source="pxR8fgpR1iwGd776vOP8-13" target="pxR8fgpR1iwGd776vOP8-10" edge="1">
          <mxGeometry width="50" height="50" relative="1" as="geometry">
            <mxPoint x="90" y="180" as="sourcePoint" />
            <mxPoint x="140" y="130" as="targetPoint" />
            <Array as="points">
              <mxPoint x="350" y="210" />
              <mxPoint x="220" y="210" />
              <mxPoint x="220" y="155" />
            </Array>
          </mxGeometry>
        </mxCell>
        <mxCell id="pxR8fgpR1iwGd776vOP8-15" value="" style="endArrow=classic;html=1;rounded=0;entryX=0;entryY=0.5;entryDx=0;entryDy=0;" parent="1" target="pxR8fgpR1iwGd776vOP8-5" edge="1">
          <mxGeometry width="50" height="50" relative="1" as="geometry">
            <mxPoint x="280" y="210" as="sourcePoint" />
            <mxPoint x="160" y="250" as="targetPoint" />
            <Array as="points">
              <mxPoint x="280" y="230" />
              <mxPoint x="200" y="230" />
              <mxPoint x="200" y="85" />
            </Array>
          </mxGeometry>
        </mxCell>
        <mxCell id="pxR8fgpR1iwGd776vOP8-16" value="" style="endArrow=classic;html=1;rounded=0;exitX=1;exitY=0.5;exitDx=0;exitDy=0;" parent="1" source="pxR8fgpR1iwGd776vOP8-5" edge="1">
          <mxGeometry width="50" height="50" relative="1" as="geometry">
            <mxPoint x="410" y="70" as="sourcePoint" />
            <mxPoint x="280" y="270" as="targetPoint" />
            <Array as="points">
              <mxPoint x="380" y="85" />
              <mxPoint x="380" y="250" />
              <mxPoint x="280" y="250" />
            </Array>
          </mxGeometry>
        </mxCell>
        <mxCell id="pxR8fgpR1iwGd776vOP8-17" value="if fib==x" style="rhombus;whiteSpace=wrap;html=1;" parent="1" vertex="1">
          <mxGeometry x="240" y="270" width="80" height="40" as="geometry" />
        </mxCell>
        <mxCell id="pxR8fgpR1iwGd776vOP8-18" value="" style="endArrow=classic;html=1;rounded=0;exitX=1;exitY=0.5;exitDx=0;exitDy=0;entryX=0.5;entryY=0;entryDx=0;entryDy=0;" parent="1" source="pxR8fgpR1iwGd776vOP8-17" target="pxR8fgpR1iwGd776vOP8-19" edge="1">
          <mxGeometry width="50" height="50" relative="1" as="geometry">
            <mxPoint x="420" y="340" as="sourcePoint" />
            <mxPoint x="470" y="290" as="targetPoint" />
            <Array as="points">
              <mxPoint x="400" y="290" />
            </Array>
          </mxGeometry>
        </mxCell>
        <mxCell id="pxR8fgpR1iwGd776vOP8-19" value="return true" style="ellipse;whiteSpace=wrap;html=1;" parent="1" vertex="1">
          <mxGeometry x="340" y="310" width="120" height="20" as="geometry" />
        </mxCell>
        <mxCell id="pxR8fgpR1iwGd776vOP8-20" value="+" style="text;html=1;align=center;verticalAlign=middle;resizable=0;points=[];autosize=1;strokeColor=none;fillColor=none;" parent="1" vertex="1">
          <mxGeometry x="315" y="135" width="30" height="30" as="geometry" />
        </mxCell>
        <mxCell id="pxR8fgpR1iwGd776vOP8-21" value="-" style="text;html=1;align=center;verticalAlign=middle;resizable=0;points=[];autosize=1;strokeColor=none;fillColor=none;" parent="1" vertex="1">
          <mxGeometry x="215" y="135" width="30" height="30" as="geometry" />
        </mxCell>
        <mxCell id="pxR8fgpR1iwGd776vOP8-24" value="+" style="text;html=1;align=center;verticalAlign=middle;resizable=0;points=[];autosize=1;strokeColor=none;fillColor=none;" parent="1" vertex="1">
          <mxGeometry x="325" y="265" width="30" height="30" as="geometry" />
        </mxCell>
        <mxCell id="pxR8fgpR1iwGd776vOP8-25" value="" style="endArrow=classic;html=1;rounded=0;exitX=0;exitY=0.5;exitDx=0;exitDy=0;entryX=0.5;entryY=0;entryDx=0;entryDy=0;" parent="1" source="pxR8fgpR1iwGd776vOP8-17" target="pxR8fgpR1iwGd776vOP8-26" edge="1">
          <mxGeometry width="50" height="50" relative="1" as="geometry">
            <mxPoint x="60" y="320" as="sourcePoint" />
            <mxPoint x="110" y="270" as="targetPoint" />
            <Array as="points">
              <mxPoint x="190" y="290" />
            </Array>
          </mxGeometry>
        </mxCell>
        <mxCell id="pxR8fgpR1iwGd776vOP8-26" value="return false" style="ellipse;whiteSpace=wrap;html=1;" parent="1" vertex="1">
          <mxGeometry x="130" y="310" width="120" height="20" as="geometry" />
        </mxCell>
        <mxCell id="pxR8fgpR1iwGd776vOP8-27" value="" style="endArrow=none;html=1;rounded=0;exitX=0.5;exitY=1;exitDx=0;exitDy=0;entryX=0.5;entryY=1;entryDx=0;entryDy=0;" parent="1" source="pxR8fgpR1iwGd776vOP8-26" target="pxR8fgpR1iwGd776vOP8-19" edge="1">
          <mxGeometry width="50" height="50" relative="1" as="geometry">
            <mxPoint x="230" y="440" as="sourcePoint" />
            <mxPoint x="280" y="390" as="targetPoint" />
            <Array as="points">
              <mxPoint x="190" y="350" />
              <mxPoint x="400" y="350" />
            </Array>
          </mxGeometry>
        </mxCell>
        <mxCell id="pxR8fgpR1iwGd776vOP8-28" value="-" style="text;html=1;align=center;verticalAlign=middle;resizable=0;points=[];autosize=1;strokeColor=none;fillColor=none;" parent="1" vertex="1">
          <mxGeometry x="210" y="265" width="30" height="30" as="geometry" />
        </mxCell>
      </root>
    </mxGraphModel>
  </diagram>
</mxfile>
